# xmcd
#
# Track frame offsets:
#	150
#	17275
#	30122
#	52653
#	69401
#	90259
#	105539
#	120414
#	142558
#	157606
#	168542
#
# Disc length: 2565 seconds
#
# Revision: 0
# Processed by: cddbd v1.5.2PL0 Copyright (c) Steve Scherf et al.
# Submitted via: audiograbber 1.83.01
#
DISCID=600a030b
DTITLE=the Goodnight Graces - Winterbourne Sessions
DYEAR=2009
DGENRE=Folk
TTITLE0=Winter Wooskie
TTITLE1=Big Moon
TTITLE2=The Present
TTITLE3=Angel in the Snow
TTITLE4=Be Thou My Vision
TTITLE5=When the Snow Falls
TTITLE6=Lo, How a Rose E're Bloom
TTITLE7=As the First Soft Snowflakes
TTITLE8=What Child is This
TTITLE9=Coventry Carol
TTITLE10=I'll Be Home for Christmas
EXTD=
EXTT0=
EXTT1=
EXTT2=
EXTT3=
EXTT4=
EXTT5=
EXTT6=
EXTT7=
EXTT8=
EXTT9=
EXTT10=
PLAYORDER=
